<svg xmlns="http://www.w3.org/2000/svg" viewBox="0 0 122.88 100.89"><path d="M115.39 56.45l-.07 2.6-25.02 7.27-1.46-3.2c-.81-1.66-4.09-.71-3.37 1.76 1.04 3.54 2.64 6.28 4.16 9.07C98 89.37 127.48 84.5 119.14 60.59l-.07-4.54a6.32 6.32 0 00-2.51-12.12h-.24l2.73-1.16-12.2-31.65C103.06-.66 99-2.21 92.42 2.41L57.85 35.36l-.84-.84h-7.55c-2.3 0-4.18 1.88-4.18 4.18v15.97H33.74v-.77c0-1.5-1.23-2.73-2.73-2.73H15.74a2.74 2.74 0 00-2.73 2.73v.77H8.79c-2.86 0-5.2 2.34-5.2 5.2v6.49c0 2.87 2.35 5.21 5.21 5.21h55.25c2.87 0 5.21-2.35 5.21-5.21V46.79l-1.84-1.85L95.39 15.4l14.18 31.39 2.62-1.11a6.294 6.294 0 00-1.94 4.56c-.01 3.09 2.21 5.66 5.14 6.21zM13.59 73.72h45.48c7.47 0 13.59 6.11 13.59 13.59 0 7.47-6.11 13.59-13.59 13.59H13.59C6.11 100.89 0 94.78 0 87.3c0-7.47 6.11-13.58 13.59-13.58zm3.86 12.36c.16 0 .28.55.28 1.23s-.13 1.23-.28 1.23h-1.09v1.09c0 .16-.55.28-1.23.28-.68 0-1.23-.13-1.23-.28v-1.09h-1.09c-.16 0-.28-.55-.28-1.23s.13-1.23.28-1.23h1.09v-1.09c0-.16.55-.28 1.23-.28.68 0 1.23.13 1.23.28v1.09h1.09zm38.97-1.1c0-.16.55-.28 1.23-.28s1.23.13 1.23.28v1.09h1.09c.16 0 .28.55.28 1.23s-.13 1.23-.28 1.23h-1.09v1.09c0 .16-.55.28-1.23.28s-1.23-.13-1.23-.28v-1.09h-1.09c-.16 0-.28-.55-.28-1.23s.13-1.23.28-1.23h1.09v-1.09zm1.23-7.62c5.49 0 9.94 4.45 9.94 9.94s-4.45 9.94-9.94 9.94c-5.49 0-9.94-4.45-9.94-9.94s4.45-9.94 9.94-9.94zm-42.52 0c5.49 0 9.94 4.45 9.94 9.94s-4.45 9.94-9.94 9.94c-5.49 0-9.94-4.45-9.94-9.94s4.45-9.94 9.94-9.94zM97.01 5.3c1.93 0 3.5 1.57 3.5 3.5s-1.57 3.5-3.5 3.5-3.5-1.57-3.5-3.5 1.56-3.5 3.5-3.5z" fill-rule="evenodd" clip-rule="evenodd"/></svg>